<svg width="170" height="170" viewBox="0 0 170 170" fill="none" xmlns="http://www.w3.org/2000/svg">
<rect width="170" height="170" rx="85" fill="#F7354D"/>
<path d="M85.0089 121.562L84.9447 121.484L26.1144 50.091L50.8858 17.0666L85.2133 17.0667L85.2182 17.0666L119.162 16.8787L143.932 49.9006L85.2491 121.115L85.179 121.2L85.1322 121.299L85.0089 121.562Z" fill="white" stroke="#F7354D" stroke-width="1.7525"/>
<path d="M58.9886 121.379H64.6644C66.6376 121.379 68.0769 121.843 68.9822 122.772C69.8875 123.677 70.3402 125.082 70.3402 126.985V128.482C70.3402 131.013 69.5045 132.615 67.8331 133.288V133.357C68.7617 133.636 69.4117 134.205 69.7831 135.064C70.1777 135.923 70.375 137.072 70.375 138.511V142.794C70.375 143.49 70.3983 144.059 70.4447 144.5C70.4911 144.918 70.6072 145.336 70.7929 145.754H66.893C66.7537 145.359 66.6608 144.988 66.6144 144.639C66.568 144.291 66.5447 143.664 66.5447 142.759V138.302C66.5447 137.188 66.359 136.41 65.9876 135.969C65.6394 135.528 65.0242 135.307 64.1421 135.307H62.8189V145.754H58.9886V121.379ZM64.2117 131.825C64.9778 131.825 65.5465 131.628 65.918 131.233C66.3126 130.839 66.5099 130.177 66.5099 129.249V127.368C66.5099 126.486 66.3474 125.848 66.0224 125.453C65.7207 125.058 65.2332 124.861 64.56 124.861H62.8189V131.825H64.2117ZM78.6039 146.102C76.7468 146.102 75.3308 145.58 74.3558 144.535C73.3808 143.467 72.8933 141.947 72.8933 139.973V121.379H76.7236V140.252C76.7236 141.088 76.8861 141.691 77.2111 142.063C77.5593 142.434 78.0468 142.62 78.6736 142.62C79.3003 142.62 79.7762 142.434 80.1012 142.063C80.4494 141.691 80.6235 141.088 80.6235 140.252V121.379H84.3145V139.973C84.3145 141.947 83.827 143.467 82.8521 144.535C81.8771 145.58 80.461 146.102 78.6039 146.102ZM87.0425 121.379H92.8228C94.796 121.379 96.2352 121.843 97.1406 122.772C98.0459 123.677 98.4986 125.082 98.4986 126.985V127.96C98.4986 129.214 98.2897 130.235 97.8718 131.024C97.4772 131.814 96.862 132.382 96.0263 132.731V132.8C97.9299 133.45 98.8816 135.145 98.8816 137.884V139.973C98.8816 141.854 98.3825 143.293 97.3843 144.291C96.4093 145.266 94.9701 145.754 93.0665 145.754H87.0425V121.379ZM92.3701 131.303C93.1362 131.303 93.7049 131.106 94.0763 130.711C94.471 130.316 94.6683 129.655 94.6683 128.726V127.368C94.6683 126.486 94.5058 125.848 94.1808 125.453C93.879 125.058 93.3915 124.861 92.7183 124.861H90.8728V131.303H92.3701ZM93.0665 142.272C93.7397 142.272 94.2388 142.097 94.5638 141.749C94.8888 141.378 95.0513 140.751 95.0513 139.869V137.745C95.0513 136.631 94.854 135.865 94.4594 135.447C94.088 135.006 93.4612 134.785 92.579 134.785H90.8728V142.272H93.0665ZM104.093 135.377L99.4622 121.379H103.536L106.148 130.328H106.217L108.829 121.379H112.555L107.924 135.377V145.754H104.093V135.377Z" fill="white"/>
</svg>
